<?xml version="1.0" standalone="no"?>
<!DOCTYPE svg PUBLIC "-//W3C//DTD SVG 20010904//EN"
 "http://www.w3.org/TR/2001/REC-SVG-20010904/DTD/svg10.dtd">
<svg version="1.0" xmlns="http://www.w3.org/2000/svg"
 width="270.000000pt" height="270.000000pt" viewBox="0 0 270.000000 270.000000"
 preserveAspectRatio="xMidYMid meet">
<metadata>
Created by potrace 1.14, written by Peter Selinger 2001-2017
</metadata>
<g transform="translate(0.000000,270.000000) scale(0.100000,-0.100000)"
fill="#000000" stroke="none">
<path d="M1212 2570 c-373 -39 -723 -266 -917 -594 -385 -652 -95 -1491 610
-1769 336 -133 745 -103 1050 75 311 183 527 478 594 813 57 288 26 537 -99
790 -232 472 -716 739 -1238 685z m-310 -1105 c70 -170 135 -325 144 -343 19
-35 59 -62 94 -62 15 0 20 -6 20 -25 l0 -25 -185 0 -185 0 0 25 c0 21 5 25 28
25 16 0 37 6 48 14 19 14 19 16 -7 88 l-25 73 -140 0 -139 0 -23 -68 c-27 -83
-20 -107 33 -107 31 0 35 -3 35 -25 l0 -25 -135 0 -135 0 0 24 c0 19 7 25 34
30 18 4 41 15 50 25 13 14 189 439 277 669 8 19 15 23 46 20 l38 -3 127 -310z
m1388 291 c0 -7 -108 -164 -241 -347 l-240 -334 133 -3 c248 -6 286 10 317
128 13 53 20 66 39 68 25 4 27 -9 16 -166 l-7 -92 -360 0 c-346 0 -359 1 -354
19 2 10 111 165 241 345 130 179 236 328 236 331 0 3 -64 5 -142 5 -124 0
-147 -3 -175 -20 -33 -20 -55 -54 -67 -102 -4 -20 -13 -28 -28 -28 -20 0 -21
3 -14 97 4 54 10 101 12 105 3 4 147 8 320 8 259 0 314 -2 314 -14z m-772
-458 l3 -48 -159 0 c-87 0 -161 2 -163 4 -2 3 -3 25 -1 51 l4 45 157 -2 156
-3 3 -47z"/>
<path d="M641 1449 c-30 -77 -52 -142 -49 -145 3 -2 53 -3 110 -2 l106 3 -54
139 c-29 76 -54 140 -56 141 -2 2 -27 -59 -57 -136z"/>
</g>
</svg>
