<?xml version="1.0" standalone="no"?>
<!DOCTYPE svg PUBLIC "-//W3C//DTD SVG 20010904//EN"
 "http://www.w3.org/TR/2001/REC-SVG-20010904/DTD/svg10.dtd">
<svg version="1.0" xmlns="http://www.w3.org/2000/svg"
 width="270.000000pt" height="270.000000pt" viewBox="0 0 270.000000 270.000000"
 preserveAspectRatio="xMidYMid meet">
<metadata>
Created by potrace 1.14, written by Peter Selinger 2001-2017
</metadata>
<g transform="translate(0.000000,270.000000) scale(0.100000,-0.100000)"
fill="#000000" stroke="none">
<path d="M962 1698 c-1 -170 1 -308 6 -308 4 0 6 91 4 202 -4 379 -8 414 -10
106z"/>
<path d="M1208 1993 c7 -3 16 -2 19 1 4 3 -2 6 -13 5 -11 0 -14 -3 -6 -6z"/>
<path d="M1402 1703 c-2 -274 0 -305 15 -323 16 -19 30 -20 185 -20 l168 0 0
70 c0 40 -4 70 -10 70 -5 0 -10 -25 -10 -55 l0 -55 -167 2 -168 3 -5 305 -5
305 -3 -302z"/>
<path d="M1750 1925 l0 -55 -95 0 -95 0 0 -50 c0 -58 17 -68 22 -12 l3 37 93
3 92 3 0 64 c0 37 -4 65 -10 65 -5 0 -10 -25 -10 -55z"/>
<path d="M1312 1936 c55 -68 49 -196 -12 -261 -19 -20 -18 -22 16 -140 18 -65
34 -125 34 -132 0 -17 -131 -18 -148 -1 -18 18 -14 1 5 -22 15 -17 30 -20 95
-20 43 0 78 3 78 7 0 4 -16 65 -36 136 l-37 128 20 22 c66 72 65 199 0 269
-18 19 -24 25 -15 14z"/>
<path d="M1120 1811 c0 -47 3 -60 18 -63 15 -4 17 2 14 49 -3 46 -1 53 15 53
15 0 16 2 3 10 -8 5 -23 10 -32 10 -15 0 -18 -9 -18 -59z"/>
<path d="M1192 1810 c0 -19 2 -27 5 -17 2 9 2 25 0 35 -3 9 -5 1 -5 -18z"/>
<path d="M1661 1688 l3 -53 -52 -3 -52 -3 0 -49 c0 -61 18 -76 22 -18 l3 43
53 3 52 3 0 65 c0 52 -3 64 -16 64 -12 0 -15 -10 -13 -52z"/>
<path d="M1120 1512 l0 -122 -65 0 c-52 0 -65 -3 -65 -15 0 -13 13 -15 78 -13
l77 3 0 122 c0 84 -4 126 -12 135 -10 10 -13 -12 -13 -110z"/>
<path d="M1171 1484 c0 -11 3 -14 6 -6 3 7 2 16 -1 19 -3 4 -6 -2 -5 -13z"/>
<path d="M1181 1444 c0 -11 3 -14 6 -6 3 7 2 16 -1 19 -3 4 -6 -2 -5 -13z"/>
<path d="M837 1295 c-47 -16 -81 -46 -101 -90 -13 -26 -16 -71 -16 -213 0
-192 5 -220 48 -265 47 -50 99 -71 177 -72 82 0 130 23 167 83 22 35 23 46 23
227 0 166 -2 194 -18 224 -55 100 -173 145 -280 106z m113 -301 c0 -139 -9
-192 -31 -179 -14 9 -12 308 3 323 6 6 15 9 20 6 4 -3 8 -70 8 -150z"/>
<path d="M1267 1296 c-50 -18 -76 -42 -98 -91 -25 -55 -28 -365 -4 -423 31
-74 99 -120 191 -129 104 -11 205 67 204 158 -1 60 -17 70 -106 67 -79 -3 -79
-3 -84 -32 -3 -17 -9 -30 -15 -30 -6 -1 -11 59 -13 155 -2 130 0 158 13 169
13 11 15 9 15 -11 0 -33 39 -49 122 -49 l68 0 0 40 c0 49 -17 84 -62 127 -62
60 -148 78 -231 49z"/>
<path d="M250 1284 c0 -9 27 -148 61 -308 42 -204 65 -295 76 -303 11 -8 50
-13 104 -13 75 0 88 3 93 18 3 9 32 147 65 305 53 250 59 290 47 303 -10 10
-39 14 -99 14 l-84 0 -6 -37 c-4 -21 -9 -69 -13 -108 -8 -81 -23 -121 -24 -62
0 65 -21 180 -35 194 -9 9 -41 13 -99 13 -73 0 -86 -2 -86 -16z"/>
<path d="M1700 1297 c0 -1 -29 -140 -65 -307 -75 -354 -78 -330 47 -330 l78 0
6 40 c6 37 9 40 39 40 29 0 34 -4 40 -30 4 -17 15 -35 25 -40 28 -15 170 -13
170 3 0 41 -125 595 -138 610 -12 14 -32 17 -109 17 -51 0 -93 -1 -93 -3z
m113 -374 c5 -26 3 -33 -9 -33 -11 0 -14 6 -10 16 3 9 6 25 6 36 0 29 6 20 13
-19z"/>
<path d="M2060 990 c0 -296 1 -310 19 -320 26 -14 239 -13 282 1 41 14 87 55
101 89 13 35 12 124 -3 152 -6 13 -21 33 -32 46 l-20 22 22 24 c46 49 40 163
-12 223 -53 60 -94 73 -234 73 l-123 0 0 -310z m210 116 c0 -19 -4 -38 -10
-41 -6 -4 -10 10 -10 34 0 23 5 41 10 41 6 0 10 -15 10 -34z m8 -228 c2 -22
-3 -39 -12 -48 -14 -11 -16 -6 -16 40 0 60 23 67 28 8z"/>
</g>
</svg>
